<svg version="1.1" id="thedemigs_xA0_Image_1_" xmlns:x="&ns_extend;" xmlns:i="&ns_ai;" xmlns:graph="&ns_graphs;"
	 xmlns="http://www.w3.org/2000/svg" xmlns:xlink="http://www.w3.org/1999/xlink" x="0px" y="0px" viewBox="0 0 150.8 52.5"
	 enable-background="new 0 0 150.8 52.5" xml:space="preserve">
<metadata>
	<sfw  xmlns="&ns_sfw;">
		<slices></slices>
		<sliceSourceBounds  height="86" width="260.8" bottomLeftOrigin="true" x="512" y="348"></sliceSourceBounds>
	</sfw>
</metadata>
<rect x="-53" y="-8.8" display="none" fill="#FC0606" stroke="#000000" stroke-miterlimit="10" width="259.8" height="85"/>
<g>
	<path fill="none" d="M84.9,11.4c-0.3-0.1-0.7-0.3-1-0.4c-1.1-0.7-2.1-1.5-3.4-1.9c-2.2-0.8-4.5-1.6-6.8-1.8
		c-1.8-0.1-3.5-0.5-5.3-0.2c-1.1,0.2-2.2,0.1-3.3,0.3c-1.2,0.2-2.4,0.5-3.6,0.8c-0.6,0.1-0.8,0.7-0.6,1.2c0.2,0.8,0.8,1.4,1.3,1.3
		c0.5-0.1,0.9-0.2,1.4-0.3c1-0.2,1.9-0.4,2.9-0.5c0.7-0.1,1.5,0,2.3,0c0.8,0,1.6,0,2.4,0c0.3,0,0.5,0.1,0.4,0.5
		c0,0.2-0.1,0.4-0.1,0.6c-0.5,1.8-1.2,3.6-1.6,5.5c-0.4,1.9-1.2,3.8-1.5,5.8c-0.1,1.2-0.6,2.4-0.9,3.6c-0.1,0.5-0.4,0.9-0.4,1.4
		c-0.2,1-0.3,2.1-0.5,3.1c-0.1,0.7-0.2,1.5,0,2.2c0.1,0.3,0.1,0.6,0.3,0.9c0.2,0.4,0.4,0.9,0.7,1.1c0.6,0.4,1.4,0.5,2.1,0.8
		c1.6,0.7,3.3,0.3,5,0.2c1.3-0.1,2.5-0.7,3.8-1c1.6-0.3,2.9-1.4,4.2-2.2c1.2-0.8,2.2-2,3.2-3.1c0.7-0.8,1.3-1.7,1.8-2.6
		c1-2.1,1.5-4.4,1.4-6.8c0-0.3-0.1-0.6-0.1-0.9c-0.4-1.1-0.8-2.1-1.1-3.2c-0.4-1.4-1.6-2.2-2.3-3.3C85.4,11.9,85.1,11.6,84.9,11.4z
		 M134.9,30.8c0.1,0.1,0.1,0.2,0.1,0.2c0,1,0,2-0.1,3c0,0.2-0.2,0.3-0.3,0.5c-0.8,1.1-1.9,2.1-2.7,3.2c-0.9,1.3-1.9,2.5-2.6,3.9
		c-0.9,1.7-1.7,3.5-1.4,5.6c0.1,1.4,0.4,2.7,1.1,3.9c0.6,1,1.3,1.3,2.5,0.5c1.6-1.1,2.6-2.7,3.5-4.4c1.2-2.2,1.6-4.7,2.2-7.1
		c0.3-1.3,0.3-2.7,0.3-4.1c0-0.7,0.2-1.1,0.7-1.6c0.4-0.5,0.7-1,1.1-1.4c0.1-0.1,0.4-0.2,0.5-0.1c0.9,0.6,1.8,0.9,2.9,0.6
		c0.4-0.1,0.7-0.2,1.1-0.3c2-0.3,3.9-1,5.5-2.4c0.7-0.6,0.7-1.2,0.2-1.8c-0.5-0.7-0.9-0.7-1.7-0.1c-0.5,0.3-1,0.6-1.5,1
		c0-0.3-0.1-0.5-0.1-0.6c0-2.2-0.3-4.3-1.4-6.3c-0.3-0.5-0.7-0.7-1.3-0.7c-0.5,0-0.9,0.2-1.1,0.8c-0.1,0.3-0.2,0.6-0.3,0.9
		c-1.1,1.9-2.2,3.7-3.3,5.6c-0.2,0.3-0.4,0.7-0.7,1c-0.1,0.1-0.2,0.2-0.5,0.3c0-1,0-1.9,0-2.8c0-0.6,0-1.2-0.4-1.7
		c-0.2-0.3-0.3-0.7-0.4-1c-0.2-0.5-0.2-1.1-0.5-1.6c-0.9-1.5-2.6-1.9-4.1-1c-1.1,0.7-2,1.5-3,2.3c-0.1,0.1-0.1,0.2-0.2,0.3
		c-0.2,0.4-0.3,0.8-0.5,1.2c-0.6,1.1-1.1,2.2-0.7,3.6c0.2,0.7,0.4,1.5,0.7,2.1c0.3,0.7,1,0.9,1.7,1c1.6,0.1,2.8-0.6,3.9-1.7
		C134.4,31.3,134.7,31.1,134.9,30.8z M122.7,30.6c0,0,0,0.1,0.1,0.3c0.1,0.5,0.1,1.1,0.4,1.6c0.3,0.5,0.7,1,1.2,1.2
		c0.9,0.3,1.7-0.7,1.3-1.7c-0.5-1.4-0.5-2.7-0.1-4.2c0.3-1.2,0.6-2.5,0.9-3.8c0.1-0.6-0.2-1.3-0.7-1.5c-0.5-0.2-1.2,0.1-1.6,0.6
		c-1,1.5-2,3-3,4.5c-0.7,1-1.5,1.9-2.5,2.5c-0.8,0.4-1.3,0.4-1.8-0.4c-0.9-1.2-1.2-2.7-1.6-4.1c-0.4-1.3-1.2-1.8-2.4-1
		c-0.7,0.4-1.3,1-1.9,1.5c-0.9,0.8-1.8,1.6-2.6,2.4c-0.3,0.3-0.5,0.2-0.6-0.2c-0.1-0.7-0.2-1.4-0.1-2.1c0.1-1.2-0.2-2.3-0.5-3.3
		c-0.4-1.1-1.1-1.4-2.2-0.9c-0.8,0.5-1.6,1.1-2.4,1.7c-0.3,0.2-0.6,0.5-1,0.3c-0.7-0.3-1.1-0.1-1.4,0.6c-0.1,0.2-0.1,0.4-0.3,0.6
		c-1.4,1.9-2.8,3.9-4.8,5.3c-0.8,0.6-1.7,0.9-2.7,0.8c-0.5,0-0.9-0.3-0.9-0.9c0-0.5,0.2-0.7,0.7-0.9c1.1-0.5,2.2-1,3.1-1.8
		c1.6-1.4,2.7-3.2,3.6-5.1C99,22,98.7,21.2,98,21c-1.1-0.4-2.1-0.7-3.3-0.1c-1.9,0.9-3.2,2.4-4.3,4c-0.5,0.8-0.8,1.8-1.3,2.7
		c-0.6,1.2-0.3,2.5-0.2,3.7c0,0.6,0.4,1.2,0.8,1.7c1.2,1.4,3,1.6,4.8,0.8c0.9-0.4,1.7-1.1,2.5-1.6c0.5-0.3,1-0.7,1.6-1.1
		c0.2,0.3,0.3,0.5,0.5,0.7c0.6,0.8,1.6,0.8,2.1-0.2c0.4-0.8,0.8-1.7,1-2.6c0.3-1.4,1.2-2.4,2.1-3.4c0.1-0.1,0.3-0.2,0.5-0.2
		c0.1,0.2,0.2,0.3,0.2,0.5c0.1,1,0.2,2,0.2,3c0.1,0.7,0.1,1.4,0.2,2.1c0.1,1,1.1,1.5,2.1,1c1.7-0.8,3-2.2,4.3-3.4
		c0.4-0.3,0.7-0.7,1.1-1c0.4,1.1,0.7,2.1,1.2,2.9c0.8,1.4,1.8,2.7,3.7,2.6c1.2-0.1,2.3-0.7,3.2-1.4C121.7,31.4,122.2,31,122.7,30.6z
		 M25.1,20.5c0.1,0,0.1-0.1,0.2-0.1c-0.1-0.2-0.2-0.5-0.3-0.6c-0.6-0.6-0.6-1.3-0.3-2c0.1-0.2,0.1-0.3,0.2-0.5
		c0.4-2.4,1.3-4.7,2.1-7C27,9.9,27.1,9.4,27.1,9c0-0.6-0.5-1.1-1.1-1.2C25.5,7.7,25.2,8,25,8.5c-0.4,0.9-0.9,1.8-1.1,2.7
		c-0.4,1.7-1.6,3.1-1.4,4.9c0,0.1,0,0.1-0.1,0.2c-0.2,1-0.8,1.8-0.6,2.9c0,0.1-0.1,0.3-0.1,0.5c-0.1,0.6-0.3,1.3-0.4,1.9
		c-0.3,1.6-0.6,3.2-0.9,4.7c-0.1,0.7-0.3,1.3-0.5,2c-0.4,1.3-0.8,2.6-1.1,4c-0.1,0.3,0,0.7,0.1,1c0.3,0.6,0.8,0.8,1.5,0.7
		c0.6,0,0.7-0.5,0.9-0.9c0.4-1,0.6-2,1-3c0.8-1.9,2.1-3.3,3.7-4.6c0.2-0.1,0.3-0.2,0.5-0.3c0.6-0.3,1-0.1,1.2,0.6
		c0.4,1.4,0.7,2.9,1,4.3c0.2,0.9,0.6,1.5,1.2,2.1c1.8,1.5,3.9,1.7,6.1,1.6c0.1,0,0.3-0.1,0.4-0.2c0.8-0.4,1.6-0.8,2.5-0.2
		c0.2,0.1,0.4,0.2,0.6,0.2c2.2,0.2,4.3-0.1,6.2-1.2c0.5-0.3,0.9-0.7,1.2-1.2c0.4-0.5,0.1-1.2-0.4-1.7c-0.4-0.3-0.8-0.3-1.4,0.1
		c-1,0.7-2.1,1-3.3,1.4c-0.1,0-0.2,0-0.4-0.1c0.3-0.3,0.5-0.5,0.7-0.7c1.2-1,2-2.2,2.4-3.7c0.6-1.7-0.8-4.1-3-4.1
		c-1.6,0-2.6,1-3.5,2c-0.9,1-1.6,2-1.7,3.4c-0.1,0.8-0.4,1.5-0.2,2.3c0.1,0.5-0.1,0.7-0.5,0.8c-0.7,0.1-1.4,0.1-2.1,0.1
		c-1.4-0.1-2.5-1-2.7-2.4c-0.1-1-0.2-2-0.3-3c-0.1-1.1-0.5-2-1.3-2.6c-0.6-0.4-1.3-0.8-2.2-0.6c-1.2,0.2-2.4,0.6-3.3,1.4
		c-0.1,0-0.1,0.1-0.4,0.1c0.3-1.4,0.5-2.8,0.7-4.1c0.1,0,0.2,0,0.2,0C24.6,20,24.8,20.2,25.1,20.5z M15,7.6c0.5,1.2,0.5,1.2,0.1,2.7
		c-0.1,0.3-0.2,0.6-0.3,0.8c-0.3,1.1-0.5,2.2-0.8,3.2c-0.4,1.5-0.8,3-1.2,4.5c-0.6,2.2-1.1,4.4-1.7,6.6c-0.1,0.4-0.3,0.7-0.4,1.1
		c-0.2,1-0.4,2-0.7,3c-0.2,0.8-0.4,1.5-0.6,2.2c-0.1,0.5-0.4,0.9-0.5,1.4c-0.1,0.7,0,1.4,0,2.1c0,0.6,0.5,1,1.1,1.1
		c1,0.1,1.5-0.6,1.6-1.8c0.1-0.5,0-0.9,0.1-1.4c0.3-1.1,0.6-2.2,0.9-3.3c0.1-0.3,0.4-0.6,0.4-1c0.4-1.6,0.7-3.2,1.1-4.8
		c0.1-0.4,0.1-0.8,0.2-1.2c0.3-1.1,0.6-2.1,0.9-3.2c0.3-1.3,0.6-2.6,0.9-3.9c0.2-0.9,0.5-1.7,0.8-2.6c0.6-2.3,1.2-4.5,2-6.7
		c0.4-1,1-1.2,1.9-1.3c0.6-0.1,1.3-0.2,1.9-0.3c1.3-0.4,2.5-0.6,3.9-0.6c0.1,0,0.3,0,0.4,0c0.9-0.2,1.8-0.4,2.7-0.5
		c1.6-0.1,3.1,0.1,4.6,0.6c0.8,0.3,1.4,0.1,1.6-0.6c0.3-0.8,0-1.6-0.7-1.8c-1.1-0.4-2.2-0.7-3.4-0.7c-0.6,0-1.3-0.1-1.9-0.1
		c-0.3,0-0.7,0-1,0c-1.1,0.1-2.1,0.3-3.2,0.4c-0.4,0-0.7,0.1-1.1,0.2C23.7,2,22.9,2.2,22,2.4c-0.6,0.1-1.3,0.1-1.9,0.3
		c-0.5,0.2-0.9,0.1-1.4,0c-0.5-0.1-0.9-0.1-1.2,0.5c-0.1,0.2-0.5,0.4-0.7,0.4c-1,0.3-2,0.5-2.9,0.7C12,4.6,10.1,5,8.3,5.2
		C7.2,5.4,6,5.4,4.8,5.5c-0.8,0-1.2-0.3-1.5-1C3.2,4.1,2.8,3.7,2.5,3.6C2.1,3.6,1.5,3.7,1.2,4C0.7,4.4,0.5,5,0.8,5.7
		C1.3,7,2.3,7.9,3.7,8c2.3,0.2,4.7,0.3,7-0.4c0.8-0.2,1.6-0.4,2.4-0.6c0.7-0.2,1.4-0.3,2.1-0.5c0.4-0.1,0.7-0.2,1.1-0.3
		C16.2,7.4,15.9,7.7,15,7.6z M125.5,17.9c0,0.8,0.5,1.5,1.1,1.5c0.8,0,1.4-0.5,1.5-1.3c0-0.9-0.5-1.5-1.3-1.6
		C125.9,16.5,125.5,16.9,125.5,17.9z"/>
	<path d="M84.9,11.4c0.2,0.2,0.4,0.5,0.6,0.8c0.7,1.2,1.8,2,2.3,3.3c0.3,1.1,0.8,2.1,1.1,3.2c0.1,0.3,0.1,0.6,0.1,0.9
		c0.1,2.4-0.4,4.7-1.4,6.8c-0.5,0.9-1.1,1.8-1.8,2.6c-1,1.1-2,2.3-3.2,3.1c-1.3,0.8-2.6,1.9-4.2,2.2c-1.3,0.3-2.5,0.9-3.8,1
		c-1.6,0.1-3.3,0.5-5-0.2c-0.7-0.3-1.5-0.4-2.1-0.8c-0.3-0.2-0.5-0.7-0.7-1.1c-0.1-0.3-0.2-0.6-0.3-0.9c-0.2-0.7-0.2-1.4,0-2.2
		c0.2-1,0.3-2.1,0.5-3.1c0.1-0.5,0.3-0.9,0.4-1.4c0.3-1.2,0.7-2.4,0.9-3.6c0.2-2,1.1-3.8,1.5-5.8c0.4-1.9,1-3.7,1.6-5.5
		c0.1-0.2,0.1-0.4,0.1-0.6c0.1-0.3-0.1-0.5-0.4-0.5c-0.8,0-1.6,0-2.4,0c-0.8,0-1.5,0-2.3,0c-1,0.1-2,0.3-2.9,0.5
		c-0.5,0.1-0.9,0.3-1.4,0.3c-0.5,0.1-1.1-0.6-1.3-1.3c-0.1-0.6,0.1-1.1,0.6-1.2c1.2-0.3,2.4-0.6,3.6-0.8c1.1-0.2,2.2-0.1,3.3-0.3
		c1.8-0.3,3.6,0.1,5.3,0.2c2.3,0.2,4.6,1,6.8,1.8c1.3,0.5,2.3,1.3,3.4,1.9C84.2,11.1,84.6,11.2,84.9,11.4z M86.4,20.4
		c0-2-0.9-3.8-2.2-5.3c-1.3-1.5-3-2.6-4.9-3.4c-1.4-0.6-2.7-1.2-4.2-1.4c-0.4-0.1-0.7-0.1-0.9,0.4c-0.2,0.7-0.4,1.3-0.5,2
		c-0.2,1.2-0.4,2.4-0.6,3.6c-0.4,2.1-0.8,4.2-1.2,6.3c-0.1,0.5-0.1,0.9-0.3,1.4c-0.3,1.2-0.7,2.4-0.9,3.6c-0.3,1.4-0.7,2.9-1,4.3
		c-0.1,0.3,0,0.6,0.4,0.6c0.5,0.1,1,0.2,1.5,0.2c0.6,0,1.3,0,2-0.1c0.5,0,0.9,0,1.4-0.1c1.1-0.3,2.3-0.6,3.3-1.1
		c0.7-0.3,1.4-0.9,2.1-1.2c1.5-0.6,2.6-1.9,3.7-3C85.8,25.3,86.2,22.9,86.4,20.4z"/>
	<path d="M134.9,30.8c-0.3,0.3-0.5,0.5-0.8,0.7c-1.1,1.1-2.3,1.8-3.9,1.7c-0.8-0.1-1.4-0.3-1.7-1c-0.3-0.7-0.5-1.4-0.7-2.1
		c-0.4-1.3,0.1-2.4,0.7-3.6c0.2-0.4,0.3-0.8,0.5-1.2c0-0.1,0.1-0.2,0.2-0.3c1-0.8,1.9-1.6,3-2.3c1.5-1,3.2-0.5,4.1,1
		c0.3,0.5,0.3,1.1,0.5,1.6c0.1,0.3,0.2,0.7,0.4,1c0.3,0.5,0.4,1.1,0.4,1.7c0,0.9,0,1.8,0,2.8c0.3-0.2,0.4-0.2,0.5-0.3
		c0.2-0.3,0.5-0.6,0.7-1c1.1-1.9,2.2-3.7,3.3-5.6c0.2-0.3,0.3-0.6,0.3-0.9c0.2-0.6,0.5-0.8,1.1-0.8c0.6,0,1,0.2,1.3,0.7
		c1.1,1.9,1.4,4.1,1.4,6.3c0,0.2,0,0.3,0.1,0.6c0.6-0.4,1.1-0.6,1.5-1c0.8-0.6,1.2-0.6,1.7,0.1c0.5,0.6,0.4,1.3-0.2,1.8
		c-1.6,1.3-3.4,2.1-5.5,2.4c-0.4,0-0.7,0.2-1.1,0.3c-1.1,0.3-2,0.1-2.9-0.6c-0.1-0.1-0.4,0-0.5,0.1c-0.4,0.5-0.7,1-1.1,1.4
		c-0.4,0.5-0.6,1-0.7,1.6c0,1.4,0,2.8-0.3,4.1c-0.5,2.4-0.9,4.9-2.2,7.1c-0.9,1.6-2,3.2-3.5,4.4c-1.2,0.8-1.8,0.5-2.5-0.5
		c-0.8-1.2-1-2.5-1.1-3.9c-0.2-2.1,0.5-3.8,1.4-5.6c0.7-1.4,1.7-2.6,2.6-3.9c0.8-1.2,1.9-2.1,2.7-3.2c0.1-0.2,0.3-0.3,0.3-0.5
		c0-1,0.1-2,0.1-3C135.1,31,135,31,134.9,30.8z M134.4,39.1c-0.2,0.3-0.4,0.5-0.6,0.7c-0.8,1.4-1.8,2.6-2.4,4.1c-0.4,1-0.7,2-0.8,3
		c0,0.5,0.2,1.1,0.3,1.6C132.5,47.6,135,41,134.4,39.1z M134.3,26.6c0-0.3,0-0.4,0-0.5c-0.1-0.4-0.1-0.7-0.2-1.1
		c-0.4,0.1-0.9,0.2-1.3,0.3c-0.1,0-0.3,0.2-0.4,0.3c-0.6,0.7-1.2,1.5-1.7,2.2c-0.5,0.7-0.4,1.4-0.3,2.2c0.1,0.4,0.3,0.7,0.8,0.4
		c0.6-0.4,1.3-0.7,1.7-1.3C133.5,28.4,134.7,27.8,134.3,26.6z M143.3,27.3c-0.4,0.5-0.7,0.9-1,1.4c-0.2,0.4-0.5,0.7-0.7,1.1
		c-0.1,0.2,0,0.5,0.1,0.6c0.4,0.4,1.2,0.3,1.5-0.2c0.7-0.9,0.4-1.9,0.2-2.9C143.4,27.3,143.3,27.3,143.3,27.3z"/>
	<path d="M122.7,30.6c-0.5,0.4-1,0.8-1.5,1.2c-1,0.7-2,1.3-3.2,1.4c-1.9,0.1-2.9-1.2-3.7-2.6c-0.5-0.9-0.8-1.9-1.2-2.9
		c-0.4,0.4-0.8,0.7-1.1,1c-1.4,1.2-2.6,2.6-4.3,3.4c-1,0.5-1.9,0-2.1-1c-0.1-0.7-0.2-1.4-0.2-2.1c-0.1-1-0.1-2-0.2-3
		c0-0.2-0.1-0.3-0.2-0.5c-0.2,0.1-0.4,0.1-0.5,0.2c-0.9,1-1.8,2-2.1,3.4c-0.2,0.9-0.6,1.8-1,2.6c-0.4,0.9-1.4,1-2.1,0.2
		c-0.2-0.2-0.3-0.4-0.5-0.7c-0.5,0.4-1,0.7-1.6,1.1c-0.8,0.6-1.6,1.2-2.5,1.6c-1.8,0.9-3.6,0.6-4.8-0.8c-0.4-0.5-0.8-1.1-0.8-1.7
		c-0.1-1.2-0.3-2.5,0.2-3.7c0.4-0.9,0.7-1.9,1.3-2.7c1.1-1.7,2.3-3.1,4.3-4c1.3-0.6,2.3-0.3,3.3,0.1c0.7,0.3,0.9,1,0.6,1.8
		c-0.8,2-2,3.7-3.6,5.1c-0.9,0.8-2,1.3-3.1,1.8c-0.5,0.2-0.7,0.4-0.7,0.9c0.1,0.6,0.4,0.9,0.9,0.9c1,0.1,1.9-0.2,2.7-0.8
		c2-1.4,3.4-3.4,4.8-5.3c0.1-0.2,0.2-0.4,0.3-0.6c0.3-0.7,0.7-0.9,1.4-0.6c0.5,0.2,0.7,0,1-0.3c0.8-0.6,1.5-1.2,2.4-1.7
		c1-0.6,1.8-0.2,2.2,0.9c0.4,1.1,0.6,2.2,0.5,3.3c-0.1,0.7,0.1,1.4,0.1,2.1c0,0.4,0.3,0.5,0.6,0.2c0.9-0.8,1.7-1.6,2.6-2.4
		c0.6-0.5,1.3-1,1.9-1.5c1.2-0.8,2-0.3,2.4,1c0.4,1.4,0.7,2.9,1.6,4.1c0.6,0.7,1,0.8,1.8,0.4c1.1-0.6,1.9-1.5,2.5-2.5
		c1-1.5,2-3,3-4.5c0.4-0.5,1.1-0.8,1.6-0.6c0.5,0.2,0.8,0.8,0.7,1.5c-0.3,1.3-0.5,2.5-0.9,3.8c-0.4,1.4-0.4,2.8,0.1,4.2
		c0.3,0.9-0.4,1.9-1.3,1.7c-0.5-0.2-0.9-0.7-1.2-1.2c-0.3-0.5-0.3-1.1-0.4-1.6C122.8,30.7,122.7,30.6,122.7,30.6z M95.3,23.7
		c-0.8-0.1-2.5,1.6-2.4,2.5C94,25.6,94.6,24.7,95.3,23.7z"/>
	<path d="M24.2,19.7c-0.2,1.3-0.5,2.7-0.7,4.1c0.2-0.1,0.3-0.1,0.4-0.1c1-0.8,2.1-1.2,3.3-1.4c0.9-0.2,1.6,0.2,2.2,0.6
		c0.9,0.6,1.3,1.5,1.3,2.6c0.1,1,0.1,2,0.3,3c0.2,1.4,1.2,2.3,2.7,2.4c0.7,0,1.4,0,2.1-0.1c0.4,0,0.6-0.3,0.5-0.8
		c-0.2-0.8,0.1-1.5,0.2-2.3c0.2-1.4,0.9-2.4,1.7-3.4c0.9-1,1.9-2,3.5-2c2.2,0,3.6,2.4,3,4.1c-0.5,1.4-1.3,2.7-2.4,3.7
		c-0.2,0.2-0.4,0.4-0.7,0.7c0.2,0.1,0.3,0.1,0.4,0.1c1.1-0.3,2.3-0.7,3.3-1.4c0.6-0.4,1-0.5,1.4-0.1c0.5,0.4,0.7,1.1,0.4,1.7
		c-0.3,0.4-0.7,0.9-1.2,1.2c-1.9,1.1-4,1.4-6.2,1.2c-0.2,0-0.4-0.1-0.6-0.2c-0.9-0.6-1.7-0.2-2.5,0.2c-0.1,0.1-0.3,0.2-0.4,0.2
		c-2.2,0.1-4.4,0-6.1-1.6c-0.7-0.6-1.1-1.3-1.2-2.1c-0.3-1.4-0.6-2.9-1-4.3c-0.2-0.6-0.6-0.8-1.2-0.6c-0.2,0.1-0.4,0.2-0.5,0.3
		c-1.6,1.2-2.9,2.7-3.7,4.6c-0.4,1-0.6,2-1,3c-0.1,0.4-0.3,0.9-0.9,0.9c-0.7,0-1.2-0.1-1.5-0.7c-0.1-0.3-0.2-0.7-0.1-1
		c0.3-1.3,0.8-2.6,1.1-4c0.2-0.7,0.3-1.3,0.5-2c0.3-1.6,0.6-3.2,0.9-4.7c0.1-0.6,0.3-1.3,0.4-1.9c0-0.2,0.1-0.3,0.1-0.5
		c-0.2-1.1,0.4-1.9,0.6-2.9c0-0.1,0.1-0.1,0.1-0.2c-0.2-1.8,1-3.2,1.4-4.9c0.2-0.9,0.7-1.8,1.1-2.7c0.2-0.4,0.5-0.8,1.1-0.7
		c0.5,0.1,1.1,0.7,1.1,1.2c0,0.4-0.1,0.9-0.3,1.3c-0.8,2.3-1.7,4.6-2.1,7c0,0.2-0.1,0.3-0.2,0.5 M38.7,29.4c0.1,0.1,0.2,0.1,0.3,0.2
		c1-1.1,2-2.1,2.9-3.2c0.2-0.2,0.2-0.6,0.2-0.9c0-0.4-0.4-0.7-0.8-0.4c-0.5,0.3-0.9,0.6-1.2,1c-0.4,0.6-0.8,1.3-1.1,1.9
		C38.9,28.5,38.9,28.9,38.7,29.4z"/>
	<path d="M16.3,6.2c-0.4,0.1-0.7,0.2-1.1,0.3c-0.7,0.2-1.4,0.3-2.1,0.5c-0.8,0.2-1.6,0.3-2.4,0.6C8.4,8.2,6,8.1,3.7,8
		C2.3,7.9,1.3,7,0.8,5.7C0.5,5,0.7,4.4,1.2,4c0.3-0.3,0.9-0.4,1.4-0.3c0.3,0,0.7,0.5,0.8,0.8c0.3,0.7,0.7,1.1,1.5,1
		C6,5.4,7.2,5.4,8.3,5.2c1.8-0.3,3.7-0.6,5.5-1c1-0.2,2-0.5,2.9-0.7c0.3-0.1,0.6-0.2,0.7-0.4c0.3-0.5,0.7-0.6,1.2-0.5
		c0.5,0.1,0.9,0.2,1.4,0c0.6-0.2,1.3-0.2,1.9-0.3c0.9-0.2,1.7-0.4,2.6-0.6c0.3-0.1,0.7-0.1,1.1-0.2c1.1-0.1,2.1-0.3,3.2-0.4
		c0.3,0,0.7,0,1,0c0.6,0,1.3,0.1,1.9,0.1c1.2,0,2.3,0.3,3.4,0.7c0.7,0.2,1,1.1,0.7,1.8c-0.3,0.7-0.9,0.9-1.6,0.6
		c-1.5-0.5-3.1-0.7-4.6-0.6c-0.9,0.1-1.8,0.3-2.7,0.5c-0.1,0-0.3,0-0.4,0c-1.3,0-2.6,0.2-3.9,0.6c-0.6,0.2-1.2,0.3-1.9,0.3
		C20,5.4,19.3,5.5,19,6.5c-0.8,2.2-1.4,4.5-2,6.7c-0.2,0.9-0.5,1.7-0.8,2.6c-0.3,1.3-0.6,2.6-0.9,3.9c-0.3,1.1-0.6,2.1-0.9,3.2
		c-0.1,0.4-0.2,0.8-0.2,1.2c-0.4,1.6-0.7,3.2-1.1,4.8c-0.1,0.3-0.3,0.6-0.4,1c-0.3,1.1-0.6,2.2-0.9,3.3c-0.1,0.4-0.1,0.9-0.1,1.4
		c-0.2,1.2-0.6,1.8-1.6,1.8c-0.6,0-1.1-0.4-1.1-1.1c0-0.7-0.1-1.4,0-2.1c0.1-0.5,0.3-0.9,0.5-1.4c0.2-0.7,0.5-1.5,0.6-2.2
		c0.2-1,0.4-2,0.7-3c0.1-0.4,0.3-0.7,0.4-1.1c0.6-2.2,1.2-4.4,1.7-6.6c0.4-1.5,0.8-3,1.2-4.5c0.3-1.1,0.5-2.2,0.8-3.2
		c0.1-0.3,0.2-0.6,0.3-0.8"/>
	<path d="M125.5,17.9c0-1,0.4-1.4,1.3-1.4c0.8,0,1.3,0.6,1.3,1.6c0,0.8-0.6,1.3-1.5,1.3C125.9,19.4,125.4,18.7,125.5,17.9z"/>
	<path fill="none" d="M86.4,20.4c-0.2,2.5-0.7,5-2.4,6.8c-1.1,1.2-2.1,2.4-3.7,3c-0.7,0.3-1.4,0.9-2.1,1.2c-1.1,0.4-2.2,0.8-3.3,1.1
		c-0.4,0.1-0.9,0.1-1.4,0.1c-0.7,0-1.3,0.1-2,0.1c-0.5,0-1-0.1-1.5-0.2c-0.3-0.1-0.4-0.3-0.4-0.6c0.3-1.4,0.6-2.9,1-4.3
		c0.3-1.2,0.6-2.4,0.9-3.6c0.1-0.5,0.2-0.9,0.3-1.4c0.4-2.1,0.8-4.2,1.2-6.3c0.2-1.2,0.4-2.4,0.6-3.6c0.1-0.7,0.3-1.3,0.5-2
		c0.1-0.5,0.5-0.4,0.9-0.4c1.5,0.2,2.8,0.8,4.2,1.4c1.8,0.8,3.5,1.9,4.9,3.4C85.5,16.6,86.4,18.3,86.4,20.4z"/>
	<path fill="none" d="M134.4,39.1c0.5,2-1.9,8.5-3.5,9.5c-0.1-0.6-0.3-1.1-0.3-1.6c0-1,0.4-2,0.8-3c0.6-1.5,1.6-2.7,2.4-4.1
		C134,39.6,134.2,39.4,134.4,39.1z"/>
	<path fill="none" d="M134.3,26.6c0.4,1.2-0.8,1.7-1.4,2.5c-0.4,0.5-1.1,0.9-1.7,1.3c-0.4,0.3-0.7,0.1-0.8-0.4
		c-0.1-0.8-0.2-1.5,0.3-2.2c0.5-0.8,1.1-1.5,1.7-2.2c0.1-0.1,0.2-0.3,0.4-0.3c0.4-0.1,0.9-0.2,1.3-0.3c0.1,0.4,0.2,0.7,0.2,1.1
		C134.3,26.2,134.3,26.3,134.3,26.6z"/>
	<path fill="none" d="M143.3,27.3c0,0,0.1,0,0.1,0c0.2,1,0.5,2-0.2,2.9c-0.3,0.4-1.1,0.6-1.5,0.2c-0.1-0.1-0.2-0.4-0.1-0.6
		c0.2-0.4,0.4-0.8,0.7-1.1C142.6,28.3,142.9,27.8,143.3,27.3z"/>
	<path fill="none" d="M95.3,23.7c-0.7,1-1.3,1.9-2.4,2.5C92.8,25.3,94.5,23.6,95.3,23.7z"/>
	<path fill="none" d="M38.7,29.4c0.1-0.5,0.2-1,0.4-1.4c0.3-0.7,0.6-1.3,1.1-1.9c0.3-0.4,0.8-0.7,1.2-1c0.4-0.2,0.7,0,0.8,0.4
		c0,0.3,0,0.7-0.2,0.9C41,27.5,40,28.5,39,29.6C38.9,29.5,38.8,29.5,38.7,29.4z"/>
</g>
<a xlink:href="/" >
	<rect id="home-link" opacity="0" fill="#FFFFFF" width="150.8" height="52.5"/>
</a>
</svg>
